<svg xmlns="http://www.w3.org/2000/svg" width="960" height="520" viewBox="0 0 960 520" role="img" aria-labelledby="title desc">
  <title id="title">Mobile Framework Validation workflow preview</title>
  <desc id="desc">A preview of the CI workflow with Python matrix jobs, static checks, helper tests, and uploaded artifacts.</desc>
  <rect width="960" height="520" fill="#f6f7f9"/>
  <rect x="40" y="36" width="880" height="448" rx="10" fill="#ffffff" stroke="#d8dee8"/>
  <text x="72" y="88" font-family="Arial, sans-serif" font-size="28" font-weight="700" fill="#172033">Mobile Framework Validation</text>
  <text x="72" y="120" font-family="Arial, sans-serif" font-size="16" fill="#536071">push, pull_request, workflow_dispatch</text>
  <g font-family="Arial, sans-serif">
    <rect x="72" y="164" width="250" height="236" rx="8" fill="#eef7f1" stroke="#b7dfc4"/>
    <text x="96" y="206" font-size="20" font-weight="700" fill="#146b35">Python 3.11</text>
    <text x="96" y="244" font-size="16" fill="#172033">compileall</text>
    <text x="96" y="276" font-size="16" fill="#172033">ruff check</text>
    <text x="96" y="308" font-size="16" fill="#172033">32 helper tests</text>
    <text x="96" y="340" font-size="16" fill="#172033">artifacts uploaded</text>
    <text x="96" y="376" font-size="22" font-weight="700" fill="#16833f">PASSED</text>
    <rect x="354" y="164" width="250" height="236" rx="8" fill="#eef7f1" stroke="#b7dfc4"/>
    <text x="378" y="206" font-size="20" font-weight="700" fill="#146b35">Python 3.12</text>
    <text x="378" y="244" font-size="16" fill="#172033">compileall</text>
    <text x="378" y="276" font-size="16" fill="#172033">ruff check</text>
    <text x="378" y="308" font-size="16" fill="#172033">32 helper tests</text>
    <text x="378" y="340" font-size="16" fill="#172033">artifacts uploaded</text>
    <text x="378" y="376" font-size="22" font-weight="700" fill="#16833f">PASSED</text>
    <rect x="636" y="164" width="250" height="236" rx="8" fill="#eef7f1" stroke="#b7dfc4"/>
    <text x="660" y="206" font-size="20" font-weight="700" fill="#146b35">Python 3.13</text>
    <text x="660" y="244" font-size="16" fill="#172033">compileall</text>
    <text x="660" y="276" font-size="16" fill="#172033">ruff check</text>
    <text x="660" y="308" font-size="16" fill="#172033">32 helper tests</text>
    <text x="660" y="340" font-size="16" fill="#172033">artifacts uploaded</text>
    <text x="660" y="376" font-size="22" font-weight="700" fill="#16833f">PASSED</text>
  </g>
</svg>
