<svg xmlns="http://www.w3.org/2000/svg" width="960" height="520" viewBox="0 0 960 520" role="img" aria-labelledby="title desc">
  <title id="title">Mobile HTML report preview</title>
  <desc id="desc">A preview of the built-in HTML report summary and test table.</desc>
  <rect width="960" height="520" fill="#f4f6f8"/>
  <rect x="44" y="40" width="872" height="440" rx="10" fill="#ffffff" stroke="#d8dee8"/>
  <text x="78" y="92" font-family="Arial, sans-serif" font-size="30" font-weight="700" fill="#172033">Mobile Test Results</text>
  <text x="78" y="126" font-family="Arial, sans-serif" font-size="16" fill="#536071">Generated from Allure JSON result files.</text>
  <g font-family="Arial, sans-serif">
    <rect x="78" y="164" width="120" height="78" rx="6" fill="#f9fafb" stroke="#d1d5db"/>
    <text x="102" y="198" font-size="26" font-weight="700" fill="#172033">32</text>
    <text x="102" y="224" font-size="15" fill="#536071">Total</text>
    <rect x="214" y="164" width="120" height="78" rx="6" fill="#eef7f1" stroke="#b7dfc4"/>
    <text x="238" y="198" font-size="26" font-weight="700" fill="#047857">32</text>
    <text x="238" y="224" font-size="15" fill="#536071">Passed</text>
    <rect x="350" y="164" width="120" height="78" rx="6" fill="#fff7ed" stroke="#fed7aa"/>
    <text x="374" y="198" font-size="26" font-weight="700" fill="#92400e">0</text>
    <text x="374" y="224" font-size="15" fill="#536071">Skipped</text>
    <rect x="486" y="164" width="140" height="78" rx="6" fill="#eef7f1" stroke="#b7dfc4"/>
    <text x="510" y="198" font-size="26" font-weight="700" fill="#047857">100%</text>
    <text x="510" y="224" font-size="15" fill="#536071">Pass rate</text>
    <rect x="78" y="286" width="804" height="40" fill="#eef2f7"/>
    <text x="102" y="312" font-size="16" font-weight="700" fill="#172033">Status</text>
    <text x="230" y="312" font-size="16" font-weight="700" fill="#172033">Test</text>
    <text x="666" y="312" font-size="16" font-weight="700" fill="#172033">Duration</text>
    <line x1="78" y1="356" x2="882" y2="356" stroke="#e5e7eb"/>
    <text x="102" y="382" font-size="15" font-weight="700" fill="#047857">passed</text>
    <text x="230" y="382" font-size="15" fill="#172033">test_hybrid_demo_switches_context_and_submits_form</text>
    <text x="666" y="382" font-size="15" fill="#172033">8.42s</text>
    <line x1="78" y1="410" x2="882" y2="410" stroke="#e5e7eb"/>
    <text x="102" y="436" font-size="15" font-weight="700" fill="#047857">passed</text>
    <text x="230" y="436" font-size="15" fill="#172033">test_mobile_browser_runs_self_contained_example</text>
    <text x="666" y="436" font-size="15" fill="#172033">6.01s</text>
  </g>
</svg>
